<svg viewBox="0 0 566 337" fill="none" xmlns="http://www.w3.org/2000/svg">
<path d="M429.988 66.7057C429.988 62.963 433.029 60 436.85 60C440.671 60 443.712 63.041 443.712 66.7057C443.712 70.4485 440.671 73.4115 436.85 73.4115C433.107 73.4115 429.988 70.3705 429.988 66.7057Z" fill="#FFDFA6"/>
<path d="M408 66.7057C408 62.963 411.041 60 414.862 60C418.682 60 421.723 63.041 421.723 66.7057C421.723 70.4485 418.682 73.4115 414.862 73.4115C411.041 73.4115 408 70.3705 408 66.7057Z" fill="#E3CCFF"/>
<path d="M452.056 66.7057C452.056 62.963 455.097 60 458.917 60C460.633 60 462.192 60.6238 463.44 61.6374C464.843 62.885 465.779 64.6784 465.779 66.7057C465.779 70.4485 462.738 73.4115 458.917 73.4115C455.097 73.4115 452.056 70.3705 452.056 66.7057Z" fill="white" stroke="#333333" stroke-miterlimit="10"/>
<path d="M463.439 61.6387L454.472 71.6973" stroke="#333333" stroke-miterlimit="10"/>
<path d="M464.142 71.0727L453.771 62.2617" stroke="#333333" stroke-miterlimit="10"/>
<path d="M332.377 1.82057L274.319 22.3688C273.02 22.8284 272.361 24.2096 272.821 25.5081L288.872 70.8601C289.331 72.1585 290.713 72.8176 292.011 72.3581L350.069 51.8098C351.368 51.3502 352.027 49.969 351.567 48.6706L335.516 3.31856C335.056 2.02014 333.582 1.39385 332.377 1.82057Z" stroke="#333333" stroke-miterlimit="10" stroke-linecap="round" stroke-linejoin="round" stroke-dasharray="4 4"/>
<path d="M314.86 34.0069C317.272 33.1535 318.437 30.5494 317.617 28.2307C316.796 25.9121 314.159 24.6538 311.84 25.4744C309.429 26.3279 308.264 28.932 309.084 31.2506C309.905 33.5692 312.542 34.8275 314.86 34.0069Z" fill="#333333"/>
<path d="M285.786 29.9996L296.29 59.6778C296.552 60.4198 297.306 60.7793 298.048 60.5167L338.113 46.3364C338.855 46.0738 339.215 45.3204 338.952 44.5784L328.448 14.9002C328.186 14.1583 327.432 13.7988 326.69 14.0614L286.625 28.2416C285.883 28.5042 285.523 29.2576 285.786 29.9996ZM336.012 40.4008L323.483 34.1905C322.352 33.6512 321.054 34.1107 320.482 35.1481L318.412 39.3247C317.96 40.111 318.102 41.1041 318.769 41.8075L321.566 44.992L304.935 35.7457C303.739 35.0209 302.195 35.6717 301.722 36.9873L295.603 54.494L287.069 30.3805C286.937 30.0095 287.117 29.6328 287.488 29.5015L326.441 15.7151C326.812 15.5838 327.188 15.7636 327.32 16.1346L335.92 40.4336L336.012 40.4008Z" fill="#FFDFA6"/>
<path d="M526.374 241.187C526.374 245.71 522.71 249.374 518.187 249.374C513.665 249.374 510 245.71 510 241.187C510 236.665 513.665 233 518.187 233C522.71 233 526.374 236.665 526.374 241.187Z" fill="#E3CCFF"/>
<path d="M563.88 235.184H533.704C532.691 235.184 531.833 236.041 531.833 237.055C531.833 238.069 532.691 238.926 533.704 238.926H563.88C564.894 238.926 565.752 238.069 565.752 237.055C565.752 236.041 564.894 235.184 563.88 235.184Z" fill="#E3CCFF"/>
<path d="M550.702 243.371H533.626C532.613 243.371 531.755 244.229 531.755 245.242C531.755 246.256 532.613 247.114 533.626 247.114H550.702C551.716 247.114 552.574 246.256 552.574 245.242C552.652 244.229 551.794 243.371 550.702 243.371Z" fill="#E3CCFF"/>
<path d="M181.509 41.7031C171.805 41.7031 164 49.5787 164 59.2122C164 64.0641 165.969 68.4238 169.133 71.5881L181.509 59.2122V41.7031Z" fill="#B2EEDF"/>
<path d="M183.478 41V58.5091H200.987C200.987 48.8756 193.181 41 183.478 41Z" fill="#FFDFA6"/>
<path d="M170.398 72.8525C173.563 76.0168 177.922 77.9857 182.774 77.9857C192.478 77.9857 200.283 70.1101 200.283 60.4766H182.774L170.398 72.8525Z" fill="#333333"/>
<path d="M69.0574 297.533H4.65111C3.16961 297.533 2 298.703 2 300.184V325.058C2 326.539 3.16961 327.709 4.65111 327.709H69.0574C70.5388 327.709 71.7085 326.539 71.7085 325.058V300.184C71.6305 298.703 70.4609 297.533 69.0574 297.533Z" fill="white" stroke="#333333" stroke-miterlimit="10"/>
<path d="M23.6441 312.583C23.6441 316.983 20.0502 320.504 15.7229 320.504C11.3986 320.504 7.80176 316.908 7.80176 312.583C7.80176 308.25 11.2517 304.662 15.6449 304.662C20.0532 304.662 23.6441 308.187 23.6441 312.583Z" fill="white" stroke="#333333"/>
<path d="M32.8779 306.502H61.4163" stroke="#333333" stroke-miterlimit="10" stroke-linecap="round" stroke-linejoin="round"/>
<path d="M32.8779 312.662H61.4163" stroke="#333333" stroke-miterlimit="10" stroke-linecap="round" stroke-linejoin="round"/>
<path d="M32.8779 318.822H48.6286" stroke="#333333" stroke-miterlimit="10" stroke-linecap="round" stroke-linejoin="round"/>
<path d="M34.7041 91.8984V92.8447H35.6504" stroke="#333333" stroke-linecap="round" stroke-linejoin="round"/>
<path d="M38.584 92.8477H100.565" stroke="#333333" stroke-linecap="round" stroke-linejoin="round" stroke-dasharray="4.13 4.13"/>
<path d="M102.031 92.8447H102.978V91.8984" stroke="#333333" stroke-linecap="round" stroke-linejoin="round"/>
<path d="M102.978 89.1554V31.1016" stroke="#333333" stroke-linecap="round" stroke-linejoin="round" stroke-dasharray="3.86 3.86"/>
<path d="M102.978 29.7295V28.7832H102.031" stroke="#333333" stroke-linecap="round" stroke-linejoin="round"/>
<path d="M99.1453 28.7832H37.1172" stroke="#333333" stroke-linecap="round" stroke-linejoin="round" stroke-dasharray="4.13 4.13"/>
<path d="M35.6514 28.7832H34.7051V29.7295" stroke="#333333" stroke-linecap="round" stroke-linejoin="round"/>
<path d="M34.7041 32.4727V90.5265" stroke="#333333" stroke-linecap="round" stroke-linejoin="round" stroke-dasharray="3.86 3.86"/>
<path d="M31.1091 96.5859H38.49C38.8212 96.5859 39.0578 96.3493 39.0578 96.0181V89.1576C39.0578 88.8264 38.8212 88.5898 38.49 88.5898H31.1091C30.7779 88.5898 30.5413 88.8264 30.5413 89.1576V96.0181C30.494 96.3493 30.7779 96.5859 31.1091 96.5859Z" fill="#333333"/>
<path d="M31.1091 32.996H38.49C38.8212 32.996 39.0578 32.7594 39.0578 32.4282V25.5678C39.0578 25.2366 38.8212 25 38.49 25H31.1091C30.7779 25 30.5413 25.2366 30.5413 25.5678V32.4282C30.494 32.7594 30.7779 32.996 31.1091 32.996Z" fill="#333333"/>
<path d="M99.0521 96.5859H106.433C106.764 96.5859 107.001 96.3493 107.001 96.0181V89.1576C107.001 88.8264 106.764 88.5898 106.433 88.5898H99.0521C98.7209 88.5898 98.4844 88.8264 98.4844 89.1576V96.0181C98.4844 96.3493 98.7209 96.5859 99.0521 96.5859Z" fill="#333333"/>
<path d="M99.0521 32.996H106.433C106.764 32.996 107.001 32.7594 107.001 32.4282V25.5678C107.001 25.2366 106.764 25 106.433 25H99.0521C98.7209 25 98.4844 25.2366 98.4844 25.5678V32.4282C98.4844 32.7594 98.7209 32.996 99.0521 32.996Z" fill="#333333"/>
<path d="M59.6572 67.1329L49.0119 71.5577L19.6413 57.0648L19 55.9746L59.6572 67.1329Z" fill="#E3CCFF" stroke="#333333" stroke-miterlimit="10" stroke-linecap="round" stroke-linejoin="round"/>
<path d="M59.6581 67.1332L65.1731 54.8848L19.001 55.9749L59.6581 67.1332Z" fill="white" stroke="#333333" stroke-miterlimit="10" stroke-linecap="round" stroke-linejoin="round"/>
<path d="M19.6416 57.0645L57.0924 72.7758L63.6975 87.7818L19.6416 57.0645Z" fill="white" stroke="#333333" stroke-miterlimit="10" stroke-linecap="round" stroke-linejoin="round"/>
<path d="M491.218 160.304C486.306 155.079 483.109 148.062 482.641 140.342C481.705 122.798 495.117 107.749 512.661 106.814C530.205 105.878 545.254 119.289 546.189 136.834C547.125 154.378 533.714 169.427 516.17 170.362C511.335 170.596 506.657 169.738 502.368 168.023L488.879 175.742L491.218 160.304Z" fill="#B2EEDF" stroke="#333333" stroke-miterlimit="10"/>
<path d="M507.826 135.352H503.46V146.97H507.826V135.352Z" fill="white"/>
<path d="M507.437 135.743V146.581H503.85V135.743H507.437ZM508.217 134.963H503.07V147.361H508.217V134.963Z" fill="#333333"/>
<path d="M508.217 134.963H503.07V135.197H508.217V134.963Z" fill="white"/>
<path d="M508.217 134.963H503.07V135.119H508.217V134.963Z" fill="#333333"/>
<path d="M511.413 147.439C510.633 147.439 509.932 146.816 509.932 145.958V129.349C509.932 128.18 510.867 127.244 512.037 127.244C513.207 127.244 514.142 128.18 514.142 129.349V133.716H523.265C524.435 133.716 525.37 134.652 525.37 135.821C525.37 136.991 524.435 137.927 523.265 137.927H522.018V143.93C522.018 145.802 520.458 147.361 518.587 147.361H511.413V147.439Z" fill="white"/>
<path d="M512.115 127.709C513.051 127.709 513.831 128.489 513.831 129.425V133.402V134.181H514.61H518.041H522.486H523.344C524.279 134.181 525.059 134.961 525.059 135.897C525.059 136.832 524.279 137.612 523.344 137.612H522.486H521.706V138.392V144.006C521.706 145.721 520.303 147.047 518.665 147.047H511.414C510.868 147.047 510.322 146.579 510.322 145.955V134.649V133.324V129.347C510.4 128.489 511.18 127.709 512.115 127.709ZM512.115 126.93C510.712 126.93 509.62 128.021 509.62 129.425V133.402V134.727V146.033C509.62 147.047 510.478 147.905 511.492 147.905H518.743C520.848 147.905 522.564 146.189 522.564 144.084V138.47H523.421C524.825 138.47 525.917 137.378 525.917 135.975C525.917 134.571 524.825 133.479 523.421 133.479H522.564H518.119H514.61V129.503C514.61 128.021 513.519 126.93 512.115 126.93Z" fill="#333333"/>
<path d="M523.343 133.48H522.486H518.041H514.61V133.324H518.041H522.486H523.343C524.747 133.324 525.839 134.416 525.839 135.819V135.897C525.839 134.572 524.669 133.48 523.343 133.48Z" fill="white"/>
<path d="M523.343 133.324H522.486H518.041H514.61V133.48H518.041H522.486H523.343C524.669 133.48 525.839 134.572 525.839 135.897V135.819C525.839 134.494 524.747 133.324 523.343 133.324Z" fill="#333333"/>
<path d="M512.115 126.93C513.519 126.93 514.61 128.021 514.61 129.425V129.581C514.61 128.177 513.519 127.086 512.115 127.086C510.712 127.086 509.62 128.177 509.62 129.581V129.425C509.62 128.021 510.712 126.93 512.115 126.93Z" fill="white"/>
<path d="M512.115 126.93C510.712 126.93 509.62 128.021 509.62 129.425V129.581C509.62 128.177 510.712 127.086 512.115 127.086C513.519 127.086 514.61 128.177 514.61 129.581V129.425C514.61 128.021 513.519 126.93 512.115 126.93Z" fill="#333333"/>
<path d="M505.644 145.956C505.254 145.956 504.942 145.644 504.942 145.254C504.942 144.865 505.254 144.553 505.644 144.553C506.034 144.553 506.346 144.865 506.346 145.254C506.268 145.644 506.034 145.956 505.644 145.956Z" fill="white"/>
<path d="M505.644 145.022C505.8 145.022 505.956 145.178 505.956 145.334C505.956 145.49 505.8 145.646 505.644 145.646C505.488 145.646 505.332 145.49 505.332 145.334C505.332 145.178 505.488 145.022 505.644 145.022ZM505.644 144.242C505.021 144.242 504.553 144.71 504.553 145.334C504.553 145.958 505.021 146.425 505.644 146.425C506.268 146.425 506.736 145.958 506.736 145.334C506.658 144.71 506.19 144.242 505.644 144.242Z" fill="#333333"/>
<path d="M19.9585 185.391C17.3853 180.479 11.3034 178.607 6.39103 181.102C1.47869 183.676 -0.392682 189.758 2.10248 194.67C3.97384 198.257 7.63861 200.206 11.3813 200.05C11.9272 201.142 12.551 202.311 12.551 202.311L20.3483 198.257C20.3483 198.257 19.7245 197.009 19.1787 195.839C21.362 192.876 21.7518 188.822 19.9585 185.391Z" stroke="#333333" stroke-miterlimit="10" stroke-linecap="round" stroke-linejoin="round"/>
<path d="M15.5133 200.599C15.5133 200.599 15.4353 200.599 15.4353 200.521C15.3573 200.443 15.2794 200.365 15.1234 200.209C14.8115 199.897 14.4217 199.507 13.8758 199.039C12.7842 198.026 11.2247 196.544 9.11946 194.751C8.57364 194.283 8.10581 193.815 7.48202 193.425C7.17012 193.191 6.85823 193.035 6.46836 193.035C6.07849 193.035 5.68862 193.269 5.61064 193.581C5.53267 193.971 5.76659 194.361 6.15646 194.439C6.54632 194.595 6.93619 194.517 7.32606 194.439C8.1058 194.205 8.88554 193.737 9.35338 192.957C9.82122 192.255 10.0551 191.32 9.89919 190.384C9.82122 189.916 9.66528 189.448 9.43136 189.059C9.19744 188.669 8.80756 188.357 8.33972 188.357C8.1058 188.357 7.87188 188.435 7.71593 188.591C7.55998 188.747 7.48201 188.981 7.55998 189.214C7.63796 189.682 7.87189 190.15 8.26175 190.384C9.04149 191.008 10.1331 191.164 11.0688 190.852C12.0045 190.54 12.7842 189.76 13.1741 188.825C13.33 188.357 13.486 187.889 13.408 187.421C13.33 187.187 13.1741 187.031 13.0182 186.875C12.8622 186.719 12.6283 186.719 12.3943 186.797C12.1604 186.875 12.0045 187.031 11.9265 187.265C11.8485 187.499 11.8485 187.733 11.8485 187.889C11.9265 188.357 12.2384 188.747 12.5503 189.059C13.1741 189.682 14.1098 190.072 14.9675 190.072C15.8252 190.072 16.6829 189.682 17.2287 189.059C17.4626 188.747 17.6966 188.357 17.6966 187.967C17.6966 187.577 17.3847 187.265 16.9948 187.265C16.6049 187.265 16.2151 187.421 16.0591 187.733C15.8252 188.045 15.7472 188.357 15.6693 188.747C15.5913 189.448 15.5913 190.15 15.5913 190.852C15.6692 192.177 15.9032 193.425 16.1371 194.439C16.371 195.452 16.6829 196.388 16.9168 197.09C17.1508 197.792 17.3847 198.337 17.4626 198.727C17.5406 198.883 17.5406 199.039 17.6186 199.117C17.6186 199.195 17.6966 199.273 17.6966 199.273C17.6966 199.273 17.6966 199.195 17.6186 199.117" stroke="#333333" stroke-miterlimit="10" stroke-linecap="round" stroke-linejoin="round"/>
<path d="M19.646 198.648C19.8799 198.57 20.5817 198.492 20.7377 198.726C20.9716 199.038 20.4257 199.506 20.5817 199.974C20.8156 200.52 21.6733 200.364 21.8293 200.832C22.0632 201.377 21.1275 201.923 21.2835 202.625C21.4394 203.171 22.0632 203.171 22.2971 203.561C22.687 204.574 20.5037 206.68 17.9306 207.459C17.7746 207.459 15.6694 208.083 15.1235 207.381C14.8896 206.991 15.2795 206.602 14.9676 206.056C14.5777 205.354 13.642 205.588 13.4861 205.12C13.3301 204.574 14.3438 204.028 14.1879 203.561C14.0319 203.015 12.7843 203.327 12.6284 202.937C12.2385 202.001 17.3848 199.194 19.646 198.648Z" fill="#333333" stroke="#333333" stroke-miterlimit="10" stroke-linecap="round" stroke-linejoin="round"/>
<path d="M128.232 144.749C128.07 147.341 124.749 150.823 125.721 153.172C127.665 157.546 126.531 162.811 124.02 166.941C121.509 171.072 117.784 174.231 114.139 177.308C114.301 170.91 113.734 164.511 112.438 158.275C112.033 156.331 111.385 154.144 109.603 153.253C107.254 152.119 104.339 153.739 101.99 152.767C99.479 151.633 98.9121 148.232 96.8062 146.45C94.8624 144.83 92.0276 145.073 89.6787 145.802C87.3299 146.612 85.1431 147.908 82.7133 148.475C80.2834 149.042 77.3677 148.556 75.9908 146.45C75.1808 145.154 75.7478 145.964 74.9378 144.587C74.9378 144.587 70.1592 144.749 68.5393 139.241C68.5393 139.241 61.2498 131.385 71.2121 124.905C81.1744 118.426 87.9779 123.69 87.9779 123.69C87.9779 123.69 90.4887 117.94 95.2673 119.884C100.046 121.909 101.18 125.31 101.18 125.31C101.18 125.31 109.036 120.451 113.896 125.472C118.675 130.494 117.784 133.734 117.784 133.734C117.784 133.734 125.316 132.357 127.584 136.649C129.933 140.861 128.232 144.749 128.232 144.749Z" fill="#333333"/>
<path d="M118.269 165.97L117.54 198.691C117.783 208.249 110.979 214.647 103.447 214.647C95.9954 214.647 88.7869 208.815 89.1919 199.177L89.4349 190.106C89.4349 190.106 79.5536 188.486 77.4478 175.527C76.3948 169.128 76.7188 158.518 77.2858 149.933C77.7717 142.157 84.6562 136.407 92.3507 137.217L114.786 139.566C117.135 139.809 118.917 141.833 118.836 144.182L118.512 155.602C118.512 155.602 124.1 155.926 124.181 160.138C124.505 164.431 118.269 165.97 118.269 165.97Z" fill="white" stroke="#333333" stroke-miterlimit="10" stroke-linecap="round" stroke-linejoin="round"/>
<path d="M82.3896 157.06C82.3896 157.951 83.0376 158.68 84.0095 158.761C84.9005 158.842 85.7104 158.113 85.7104 157.303C85.7104 156.412 85.0625 155.684 84.0905 155.603C83.1186 155.522 82.3896 156.169 82.3896 157.06Z" fill="#333333"/>
<path d="M99.5615 157.385C99.5615 158.276 100.209 159.005 101.181 159.086C102.072 159.167 102.882 158.438 102.882 157.628C102.882 156.737 102.234 156.008 101.262 155.927C100.371 155.846 99.6425 156.494 99.5615 157.385Z" fill="#333333"/>
<path d="M91.543 154.228C91.381 154.147 89.6802 158.116 87.8173 163.056C87.5743 163.785 87.0074 165 86.5214 166.134C86.0354 167.268 86.6024 168.483 87.7363 168.888C88.7892 169.212 89.9232 169.536 90.0851 169.536" stroke="#333333" stroke-miterlimit="10" stroke-linecap="round" stroke-linejoin="round"/>
<path d="M89.4365 190.186C89.4365 190.186 95.5921 191.239 100.533 187.189" stroke="#333333" stroke-miterlimit="10" stroke-linecap="round" stroke-linejoin="round"/>
<path d="M97.7787 153.414C97.9407 153.9 99.7225 153.657 101.828 153.9C103.934 154.143 105.635 154.71 105.878 154.305C106.04 154.062 105.716 153.657 104.987 153.171C104.339 152.685 103.205 152.28 101.99 152.118C100.694 151.956 99.5605 152.199 98.8316 152.523C98.0217 152.766 97.6977 153.171 97.7787 153.414Z" fill="#333333"/>
<path d="M79.9602 152.605C80.2841 153.01 81.499 152.605 82.9569 152.605C84.4148 152.524 85.7107 152.848 85.9537 152.443C86.1157 152.2 85.8727 151.795 85.3058 151.471C84.7388 151.066 83.8479 150.742 82.8759 150.823C81.823 150.823 81.0131 151.228 80.4461 151.633C79.9602 152.038 79.7982 152.443 79.9602 152.605Z" fill="#333333"/>
<path d="M74.8548 134.221C72.749 139.809 77.6896 143.859 81.5773 144.75C87.0039 146.046 92.7545 142.563 96.4802 144.021C99.234 145.074 101.826 147.261 104.742 146.775C106.2 146.532 107.576 145.722 108.953 146.127C110.735 146.613 111.464 148.8 111.383 150.582C111.302 152.849 110.573 155.117 110.816 157.385C111.14 159.653 113.084 162.002 115.271 161.354C117.377 160.787 118.754 158.681 118.916 156.494C119.159 153.416 118.592 149.691 118.754 146.532C118.916 143.778 118.916 140.781 117.134 138.594C115.352 136.489 112.355 135.922 109.601 135.517C98.0191 133.897 86.356 133.33 74.6118 133.654" fill="#333333"/>
<path d="M90.004 156.571C90.004 156.571 90.085 157.3 89.842 158.596C89.518 159.892 88.7081 161.755 86.8452 163.293C85.8733 164.022 84.6584 164.67 83.2815 164.913C81.9046 165.156 80.2847 165.156 78.8268 164.589C78.0979 164.346 77.3689 163.941 76.64 163.455C75.992 162.969 75.3441 162.322 74.8581 161.674C73.8052 160.297 73.2382 158.515 73.1572 156.652C73.1572 154.789 73.8052 153.007 74.8581 151.63C75.3441 150.901 75.992 150.334 76.64 149.848C77.2879 149.362 78.0169 148.958 78.8268 148.715C80.3657 148.148 81.9046 148.148 83.2815 148.391C84.6584 148.634 85.8733 149.281 86.8452 150.01C88.7891 151.468 89.599 153.412 89.842 154.708C90.085 155.761 90.004 156.571 90.004 156.571Z" stroke="#333333" stroke-miterlimit="10" stroke-linecap="round" stroke-linejoin="round"/>
<path d="M109.035 156.571C109.035 156.571 109.116 157.3 108.873 158.596C108.549 159.892 107.739 161.755 105.876 163.293C104.905 164.022 103.69 164.67 102.313 164.913C100.936 165.156 99.316 165.156 97.8581 164.589C97.1291 164.346 96.4002 163.941 95.6712 163.455C95.0233 162.969 94.3753 162.322 93.8893 161.674C92.8364 160.297 92.2695 158.515 92.1885 156.652C92.1885 154.789 92.8364 153.007 93.8893 151.63C94.3753 150.901 95.0233 150.334 95.6712 149.848C96.3192 149.362 97.0481 148.958 97.8581 148.715C99.3969 148.148 100.936 148.148 102.313 148.391C103.69 148.634 104.905 149.281 105.876 150.01C107.82 151.468 108.63 153.412 108.873 154.708C109.116 155.761 109.035 156.571 109.035 156.571Z" stroke="#333333" stroke-miterlimit="10" stroke-linecap="round" stroke-linejoin="round"/>
<path d="M89.9219 155.116C89.9219 155.035 90.5698 154.873 91.3798 154.873C92.0277 154.873 92.5137 154.954 92.7567 155.035" stroke="#333333" stroke-miterlimit="10" stroke-linecap="round" stroke-linejoin="round"/>
<path d="M118.998 156.979C118.998 157.06 116.73 157.06 113.896 156.817C111.061 156.655 108.793 156.331 108.793 156.25C108.793 156.169 111.061 156.169 113.896 156.412C116.73 156.574 118.998 156.898 118.998 156.979Z" fill="#333333"/>
<path d="M92.3535 173.418C92.3535 173.499 92.8395 173.661 93.6494 173.742C94.4594 173.823 95.6743 173.58 96.6462 172.77C97.6181 171.96 98.1041 170.827 98.2661 170.017C98.4281 169.207 98.2661 168.721 98.1851 168.721L92.3535 173.418Z" stroke="#333333" stroke-miterlimit="10" stroke-linecap="round" stroke-linejoin="round"/>
<path d="M66.0285 226.793C66.0285 226.793 66.0285 226.874 66.0285 227.036C66.0285 227.198 66.0285 227.441 66.0285 227.765C66.0285 228.494 66.0285 229.466 66.0285 230.681C66.0285 233.272 66.0285 236.917 66.1095 241.453C66.1095 250.524 65.8665 263.078 65.1376 276.928C64.4086 290.778 63.6797 303.251 63.1937 312.404C62.9507 316.939 62.7888 320.584 62.6268 323.176C62.5458 324.391 62.5458 325.363 62.4648 326.092C62.4648 326.416 62.4648 326.659 62.3838 326.821C62.3838 326.983 62.3838 327.064 62.3838 327.064C62.3838 327.064 62.3838 326.983 62.3838 326.821C62.3838 326.659 62.3838 326.416 62.3838 326.092C62.3838 325.363 62.3838 324.391 62.4648 323.176C62.5458 320.665 62.7078 316.939 62.8698 312.404C63.2747 303.332 64.0037 290.778 64.6516 276.928C65.3806 263.078 65.7045 250.524 65.7855 241.453C65.7855 236.917 65.8665 233.272 65.8665 230.681C65.8665 229.466 65.8665 228.413 65.8665 227.765C65.8665 227.441 65.8665 227.198 65.8665 227.036C66.0285 226.874 66.0285 226.793 66.0285 226.793Z" fill="#333333"/>
<path d="M31.3643 278.304C31.3643 278.304 31.9312 277.899 33.0651 277.494C34.1181 277.089 35.7379 276.765 37.5198 276.927C39.3017 277.008 40.8406 277.494 41.8935 277.98C42.9464 278.466 43.5134 278.952 43.5134 278.952C43.5134 279.033 42.8654 278.628 41.8125 278.223C40.7596 277.818 39.2207 277.413 37.5198 277.251C35.8189 277.17 34.28 277.413 33.1461 277.737C32.0932 278.061 31.4453 278.385 31.3643 278.304Z" fill="#333333"/>
<path d="M148.481 217.643C137.547 203.226 125.803 204.44 119.891 204.278V197.961C115.436 197.961 109.442 201.93 106.365 204.764L103.287 208.976C101.667 204.278 97.9412 200.553 93.2435 199.095C90.4088 198.204 88.0599 197.961 88.0599 197.961V203.631C73.4 204.035 65.6246 208.004 55.8243 219.343C55.3383 219.91 54.2854 220.963 53.1515 222.016L24.2366 256.034C18.3241 262.594 12.8975 271.585 14.1934 280.332C15.5703 290.213 21.3208 296.693 32.336 304.063L62.7898 323.826L62.6278 327.227H135.279C135.279 327.227 184.524 290.861 185.739 277.416C186.63 266.725 169.621 244.128 148.481 217.643ZM63.9237 294.83L42.5413 278.874L65.5436 255.062L63.9237 294.83ZM133.66 296.045L133.093 284.301L136.17 253.361C142.245 260.326 153.503 274.176 153.503 276.201L133.66 296.045Z" fill="#B2EEDF" stroke="#333333" stroke-miterlimit="10" stroke-linecap="round" stroke-linejoin="round"/>
<path d="M153.018 275.633C153.18 275.795 153.261 275.957 153.342 276.12" stroke="#333333" stroke-miterlimit="10" stroke-linecap="round" stroke-linejoin="round"/>
<path d="M115.516 326.175C116.326 326.58 115.435 326.094 117.784 327.309H130.743L133.497 324.636L123.454 309.652C122.32 310.138 117.622 310.948 116.002 311.515C114.544 312.001 113.086 312.244 111.547 312.244C109.928 312.244 107.903 312.163 106.526 311.839C106.445 311.839 106.283 311.758 106.202 311.758C105.959 311.677 105.716 311.596 105.473 311.596C104.096 311.434 102.962 312.973 103.772 314.107C104.582 315.322 108.389 316.78 113.248 316.699C113.329 316.699 113.41 316.699 113.491 316.699C117.784 316.699 113.815 320.263 111.304 322.449C110.414 323.178 109.928 324.393 110.09 325.527C110.171 326.013 110.333 326.337 110.657 326.58C111.79 327.147 115.516 326.175 115.516 326.175Z" fill="white" stroke="#333333" stroke-miterlimit="10" stroke-linecap="round" stroke-linejoin="round"/>
<path d="M97.8606 325.767C97.8606 325.767 97.8606 325.686 97.8606 325.443C97.8606 325.2 97.7796 324.957 97.7796 324.552C97.6986 323.742 97.6176 322.608 97.5366 321.15C97.4556 319.692 97.2936 317.83 97.2126 315.724C97.1316 313.618 96.9697 311.188 96.9697 308.596C96.8887 305.923 96.8887 303.008 96.8887 299.93C96.8887 298.391 96.8887 296.771 96.8887 295.07C96.8887 293.45 96.9697 291.668 96.9697 289.968C97.2126 283.002 97.5366 275.227 98.1036 267.208C99.2375 251.09 100.695 236.512 101.586 225.982C102.072 220.718 102.396 216.425 102.639 213.509C102.801 212.051 102.882 210.917 102.963 210.107C102.963 209.703 103.044 209.46 103.044 209.217C103.044 209.055 103.044 208.893 103.125 208.893" stroke="#333333" stroke-miterlimit="10" stroke-linecap="round" stroke-linejoin="round"/>
<path d="M103.205 208.897C98.9127 209.869 96.8879 214.648 96.8879 214.648C91.7852 206.71 87.9785 203.471 87.9785 203.471" stroke="#333333" stroke-miterlimit="10" stroke-linecap="round" stroke-linejoin="round"/>
<path d="M119.891 204.197C119.891 204.197 112.358 208.895 108.876 214.645C108.876 214.645 107.904 210.272 103.206 208.895" stroke="#333333" stroke-miterlimit="10" stroke-linecap="round" stroke-linejoin="round"/>
<path d="M135.846 293.857L121.996 307.383L135.198 327.146" stroke="#333333" stroke-miterlimit="10" stroke-linecap="round" stroke-linejoin="round"/>
<path d="M65.623 255.064L66.19 223.152" stroke="#333333" stroke-miterlimit="10" stroke-linecap="round" stroke-linejoin="round"/>
<path d="M63.9228 294.832L62.5459 326.177" stroke="#333333" stroke-miterlimit="10" stroke-linecap="round" stroke-linejoin="round"/>
<path d="M105.311 225.662C105.982 225.662 106.526 225.118 106.526 224.447C106.526 223.776 105.982 223.232 105.311 223.232C104.64 223.232 104.096 223.776 104.096 224.447C104.096 225.118 104.64 225.662 105.311 225.662Z" fill="#333333"/>
<path d="M104.745 247.045C105.416 247.045 105.96 246.501 105.96 245.83C105.96 245.159 105.416 244.615 104.745 244.615C104.074 244.615 103.53 245.159 103.53 245.83C103.53 246.501 104.074 247.045 104.745 247.045Z" fill="#333333"/>
<path d="M104.178 268.508C104.849 268.508 105.393 267.964 105.393 267.293C105.393 266.622 104.849 266.078 104.178 266.078C103.507 266.078 102.963 266.622 102.963 267.293C102.963 267.964 103.507 268.508 104.178 268.508Z" fill="#333333"/>
<path d="M103.61 289.891C104.281 289.891 104.825 289.347 104.825 288.676C104.825 288.005 104.281 287.461 103.61 287.461C102.939 287.461 102.396 288.005 102.396 288.676C102.396 289.347 102.939 289.891 103.61 289.891Z" fill="#333333"/>
<path d="M103.042 311.354C103.713 311.354 104.257 310.81 104.257 310.139C104.257 309.468 103.713 308.924 103.042 308.924C102.371 308.924 101.827 309.468 101.827 310.139C101.827 310.81 102.371 311.354 103.042 311.354Z" fill="#333333"/>
<path d="M136.169 253.362C136.169 253.362 120.618 235.543 123.372 222.584" stroke="#333333" stroke-miterlimit="10" stroke-linecap="round" stroke-linejoin="round"/>
<path d="M260.01 327.227L246.241 287.297L252.64 248.987C254.503 238.619 255.555 229.548 252.721 224.364C245.269 210.514 236.36 209.218 224.049 206.06C221.538 205.412 202.342 204.764 200.156 205.25C183.471 207.113 172.78 215.941 166.948 230.358L160.63 255.952L151.883 282.68C150.263 285.92 147.509 288.188 144.189 288.917L110.576 300.337L110.819 306.897L110.576 315.807L155.366 307.383C164.356 305.682 173.509 302.362 176.019 293.695L180.879 279.44C183.228 285.515 185.82 291.022 185.82 291.022L182.58 326.984L260.01 327.227Z" fill="#E3CCFF" stroke="#333333" stroke-miterlimit="10"/>
<path d="M248.428 256.277L235.631 299.042C233.687 305.684 228.504 310.867 221.862 312.892L168.568 327.066L161.521 308.68L209.632 290.781L221.457 247.935C221.457 247.935 224.211 223.961 245.836 225.176" fill="#E3CCFF"/>
<path d="M248.427 256.276C248.427 256.276 248.346 256.438 248.265 256.843C248.184 257.248 248.022 257.815 247.779 258.544C247.374 260.083 246.726 262.27 245.835 265.105C244.134 270.855 241.704 279.117 238.627 289.484C237.898 292.076 237.088 294.749 236.197 297.583C235.792 298.96 235.387 300.418 234.658 301.876C234.01 303.253 233.2 304.63 232.228 305.926C230.284 308.437 227.611 310.623 224.453 312.081C223.643 312.405 222.833 312.729 222.023 313.053C221.213 313.296 220.322 313.539 219.512 313.701C217.811 314.187 216.11 314.592 214.328 315.078C200.397 318.804 184.928 322.934 168.567 327.308L168.405 327.389L168.324 327.227C166.461 322.368 164.517 317.265 162.492 312.081C162.087 310.947 161.601 309.813 161.277 308.841L161.196 308.68L161.358 308.599C178.448 302.281 194.728 296.206 209.469 290.699L209.388 290.861C213.923 274.5 217.973 259.921 221.213 248.015C222.104 242.264 224.21 237.405 226.963 233.679C228.34 231.816 229.879 230.358 231.418 229.143C232.957 228.009 234.577 227.119 236.035 226.552C239.032 225.418 241.542 225.175 243.243 225.175C244.053 225.094 244.701 225.175 245.106 225.175C245.511 225.175 245.754 225.175 245.754 225.175" stroke="#333333" stroke-miterlimit="10" stroke-linecap="round" stroke-linejoin="round"/>
<path d="M212.062 281.144C212.062 281.144 211.819 281.225 211.414 281.225C211.009 281.225 210.442 281.144 209.713 281.063C208.255 280.739 206.311 279.929 204.691 278.39C202.991 276.851 201.938 275.069 201.371 273.693C201.209 273.369 201.128 273.045 201.047 272.721C200.966 272.478 200.885 272.235 200.885 271.992C200.804 271.587 200.804 271.344 200.804 271.344" stroke="#333333" stroke-miterlimit="10" stroke-linecap="round" stroke-linejoin="round"/>
<path d="M182.177 280.249C182.177 280.249 182.096 280.168 181.934 280.006C181.772 279.844 181.529 279.601 181.286 279.277C180.719 278.629 179.99 277.657 179.099 276.28C178.289 274.984 177.398 273.283 176.831 271.339C176.183 269.396 175.859 267.128 175.859 264.779C176.021 260 177.56 255.951 178.694 253.116C179.261 251.658 179.747 250.524 180.152 249.795C180.476 248.985 180.719 248.58 180.719 248.58" stroke="#333333" stroke-miterlimit="10" stroke-linecap="round" stroke-linejoin="round"/>
<path d="M209.47 290.78C209.47 290.699 209.956 290.861 210.604 291.185C211.252 291.509 212.062 292.076 212.79 292.967C213.519 293.777 214.005 294.749 214.248 295.397C214.491 296.045 214.491 296.531 214.491 296.531" stroke="#333333" stroke-miterlimit="10" stroke-linecap="round" stroke-linejoin="round"/>
<path d="M162.574 311.273C162.574 311.273 147.347 312.65 147.59 322.532L166.461 321.56L162.574 311.273Z" fill="#919191" stroke="#333333" stroke-miterlimit="10" stroke-linecap="round" stroke-linejoin="round"/>
<path d="M198.617 326.095C198.617 325.447 198.131 324.961 197.483 324.88L163.627 321.317L149.129 279.524C148.643 278.147 147.428 277.256 145.971 277.256L84.658 275.879C83.7671 275.879 83.1192 276.77 83.4431 277.58L102.315 326.581C102.477 327.067 102.963 327.391 103.53 327.391C135.198 327.634 166.543 327.634 197.483 327.391C198.05 327.391 198.617 326.824 198.617 326.095Z" fill="#333333"/>
<path d="M122.078 298.312C121.349 297.826 120.377 297.826 119.567 298.15C117.704 298.96 117.137 301.713 118.352 303.414C119.567 305.034 122.159 305.358 123.941 304.305C124.669 303.819 125.317 303.09 125.398 302.28C125.479 301.389 124.75 300.498 123.941 300.498C123.617 300.498 123.293 300.66 122.969 300.66C122.24 300.579 121.916 299.365 122.564 299.041C122.726 299.203 122.969 299.284 123.131 299.446" fill="white"/>
<path d="M122.564 296.693C122.887 295.802 123.778 295.397 124.507 294.749C125.236 294.101 125.641 292.886 124.831 292.4C124.264 291.995 123.454 292.4 122.968 292.805C122.402 293.291 121.916 293.858 121.835 294.506C121.673 295.235 122.078 296.045 122.725 296.207" fill="white"/>
<path d="M229.558 122.799C229.558 122.799 231.825 119.478 235.632 121.503C239.439 123.447 236.523 127.577 236.523 127.577C236.523 127.577 240.087 125.633 243.165 128.387C246.242 131.141 242.274 134.219 242.274 134.219C242.274 134.219 244.946 132.68 247.457 135.515C249.968 138.349 246.647 142.075 246.647 142.075C246.647 142.075 250.697 140.698 251.912 144.505C253.127 148.393 248.753 149.608 248.753 149.608C248.753 149.608 253.694 150.823 252.965 155.034C252.236 159.246 249.077 158.355 249.077 158.355C249.077 158.355 253.451 160.623 252.074 163.782C250.697 166.94 247.457 166.049 247.457 166.049C247.457 166.049 250.859 167.993 249.32 171.719C247.7 175.445 244.703 173.501 244.703 173.501C244.703 173.501 248.915 177.065 245.594 180.223C242.517 183.139 241.302 178.441 241.302 178.441C241.302 178.441 244.298 184.111 241.302 185.65C238.305 187.27 236.928 183.544 236.928 183.544C236.928 183.544 237.657 188.809 234.66 189.538C231.663 190.267 229.558 187.837 229.558 187.837C229.558 187.837 231.258 193.425 227.776 193.425C224.293 193.425 223.402 192.129 223.402 192.129C223.402 192.129 223.24 197.151 220.324 197.151C217.408 197.151 216.679 194.235 216.679 194.235C216.679 194.235 217.084 196.989 213.359 197.151C209.633 197.313 193.434 189.214 193.434 189.214C193.434 189.214 187.198 190.51 183.715 189.7C180.232 188.89 180.394 186.622 180.394 186.622C180.394 186.622 179.746 187.189 175.21 185.569C170.675 183.949 175.21 179.899 175.21 179.899C175.21 179.899 172.457 181.519 169.055 178.28C165.653 175.04 169.784 172.286 169.784 172.286C169.784 172.286 167.111 174.23 163.952 170.504C160.794 166.778 167.354 164.834 167.354 164.834C167.354 164.834 162.17 164.996 160.875 159.894C159.579 154.791 165.734 156.249 165.734 156.249C165.734 156.249 160.065 153.576 160.875 148.96C161.685 144.343 166.301 145.963 166.301 145.963C166.301 145.963 160.875 139.969 165.248 135.596C169.622 131.222 171.242 135.272 171.242 135.272C171.242 135.272 167.84 128.954 171.242 126.119C174.644 123.285 178.126 127.172 178.126 127.172C178.126 127.172 176.911 118.83 180.799 118.425C184.687 118.02 185.902 121.584 185.902 121.584C185.902 121.584 186.064 113.97 190.68 114.375C195.297 114.699 195.297 118.506 195.297 118.506C195.297 118.506 196.026 112.674 199.914 113.16C203.801 113.646 203.477 117.21 203.477 117.21C203.477 117.21 207.446 110.973 210.686 113.16C213.845 115.347 213.359 117.777 213.359 117.777C213.359 117.777 216.517 113.889 220.486 114.942C224.455 115.995 222.349 120.045 222.349 120.045C222.349 120.045 224.131 116.319 228.343 117.372C232.311 118.344 229.558 122.799 229.558 122.799Z" fill="#333333"/>
<path d="M211.414 222.747C219.109 222.747 226.074 216.187 225.831 206.386L227.208 150.501C227.289 148.071 225.426 146.046 222.996 145.803L199.994 143.373C192.057 142.563 185.01 148.476 184.524 156.413C183.957 165.241 183.633 176.095 184.686 182.655C186.792 195.938 196.997 197.639 196.997 197.639L196.754 206.953C196.349 216.754 203.801 222.747 211.414 222.747Z" fill="#919191" stroke="#333333" stroke-miterlimit="10" stroke-linecap="round" stroke-linejoin="round"/>
<path d="M189.707 163.619C189.707 164.51 190.436 165.32 191.327 165.32C192.299 165.401 193.028 164.672 193.109 163.781C193.109 162.89 192.38 162.08 191.489 162.08C190.517 161.999 189.788 162.728 189.707 163.619Z" fill="#333333"/>
<path d="M207.445 163.943C207.445 164.834 208.174 165.644 209.065 165.644C210.037 165.725 210.766 164.996 210.847 164.105C210.847 163.215 210.118 162.405 209.227 162.405C208.255 162.324 207.445 163.053 207.445 163.943Z" fill="#333333"/>
<path d="M198.131 182.41C198.05 182.491 198.536 182.896 199.427 183.058C200.318 183.22 201.614 183.139 202.747 182.491C203.881 181.843 204.529 180.709 204.772 179.98" stroke="#333333" stroke-miterlimit="10" stroke-linecap="round" stroke-linejoin="round"/>
<path d="M204.123 159.168C204.285 159.654 206.148 159.411 208.254 159.654C210.441 159.897 212.142 160.464 212.466 160.059C212.628 159.816 212.304 159.411 211.575 158.925C210.846 158.439 209.793 157.953 208.497 157.872C207.201 157.71 205.986 157.953 205.257 158.277C204.447 158.52 204.042 158.925 204.123 159.168Z" fill="#333333"/>
<path d="M187.601 156.735C187.925 157.14 189.221 156.735 190.679 156.735C192.217 156.654 193.513 156.978 193.756 156.573C193.918 156.33 193.675 155.925 193.108 155.52C192.541 155.115 191.65 154.791 190.598 154.872C189.545 154.872 188.654 155.277 188.087 155.682C187.601 156.087 187.439 156.492 187.601 156.735Z" fill="#333333"/>
<path d="M183.795 148.474C183.795 148.474 186.872 152.118 189.788 149.688C192.704 147.259 191.489 145.477 191.489 145.477C191.489 145.477 193.19 149.284 196.916 147.826C200.641 146.368 199.508 144.1 199.508 144.1C199.508 144.1 200.722 148.474 204.367 146.935C208.012 145.396 208.093 145.315 208.093 145.315C208.093 145.315 208.174 147.178 210.037 147.745C211.9 148.312 213.681 146.611 213.681 146.611C213.681 146.611 213.439 150.822 215.139 151.551C216.84 152.28 219.27 152.199 219.27 152.199C219.27 152.199 217.488 155.52 219.027 157.059C220.566 158.598 223.239 158.112 223.239 158.112C223.239 158.112 221.457 160.137 222.186 161.919C222.915 163.7 224.697 164.672 224.697 164.672C224.697 164.672 223.239 167.426 224.778 168.884C224.778 168.884 223.158 171.152 224.616 171.881C224.616 171.881 222.834 174.149 224.373 176.093C225.912 178.036 222.672 181.519 224.373 184.03C225.993 186.541 226.641 187.432 226.641 187.432L231.176 176.579L236.36 144.505L215.544 139.807L206.959 136.648L191.408 137.215L183.471 142.966L183.795 148.474Z" fill="#333333"/>
<path d="M199.508 161.271L199.103 166.212C199.022 167.67 198.131 169.047 196.835 169.776C195.944 170.262 195.053 171.072 195.134 172.125C195.296 174.312 197.321 175.04 199.427 174.231" stroke="#333333" stroke-miterlimit="10" stroke-linecap="round" stroke-linejoin="round"/>
<path d="M196.997 197.636C196.997 197.636 201.857 198.364 206.716 196.016" stroke="#333333" stroke-miterlimit="10" stroke-linecap="round" stroke-linejoin="round"/>
<path d="M71.7979 327.633H497.222" stroke="#333333" stroke-miterlimit="10" stroke-linecap="round" stroke-linejoin="round"/>
<path d="M281.236 327.633H361.939" stroke="#333333" stroke-miterlimit="10" stroke-linecap="round" stroke-linejoin="round"/>
<path d="M501.292 254.982L472.702 221.288L472.621 221.369C471.487 220.235 470.515 219.263 470.029 218.696C460.147 207.195 452.291 203.307 437.145 203.064L407.663 203.712C402.156 204.198 389.764 201.85 378.263 217.076C357.366 243.318 340.519 265.592 341.491 276.121C342.706 289.485 393.489 327.471 393.489 327.471L463.306 327.39L463.144 322.045L493.274 302.525C504.127 295.155 509.797 288.756 511.174 279.037C512.47 270.37 507.124 261.461 501.292 254.982ZM373.322 274.987C373.322 272.962 384.337 260.003 390.331 253.119L393.489 282.925L392.922 294.588L373.322 274.987ZM462.01 293.373L460.309 254.091L483.069 277.66L462.01 293.373Z" fill="#FFDFA6" stroke="#333333" stroke-miterlimit="10" stroke-linecap="round" stroke-linejoin="round"/>
<path d="M437.389 310.218L385.796 335.731C384.419 336.379 382.799 335.812 382.07 334.435L365.386 300.661C364.738 299.284 365.305 297.664 366.681 296.935L418.275 271.422C419.652 270.774 421.271 271.341 422 272.718L438.685 306.492C439.333 307.869 438.766 309.489 437.389 310.218Z" fill="#E3CCFF" stroke="#333333" stroke-miterlimit="10"/>
<path d="M401.995 299.77C401.266 299.365 400.375 299.365 399.646 299.689C397.864 300.499 397.459 303.091 398.593 304.548C399.727 306.006 402.157 306.249 403.777 305.277C404.425 304.872 405.073 304.143 405.073 303.334C405.153 302.524 404.425 301.633 403.615 301.714C403.291 301.714 403.048 301.876 402.724 301.876C402.076 301.795 401.752 300.742 402.319 300.337C402.481 300.418 402.643 300.58 402.886 300.661" fill="#333333"/>
<path d="M402.399 298.313C402.642 297.503 403.533 297.098 404.181 296.45C404.829 295.883 405.153 294.668 404.424 294.263C403.857 293.939 403.128 294.263 402.642 294.668C402.156 295.073 401.67 295.64 401.589 296.288C401.508 296.936 401.832 297.665 402.48 297.827" fill="#333333"/>
<path d="M387.091 208.491C390.816 205.818 395.109 206.628 398.916 209.301C402.641 211.973 404.747 216.59 405.071 221.207C405.476 225.823 404.261 230.359 402.56 234.652C399.726 241.455 395.595 247.044 389.358 254.009L373.322 274.987L404.18 305.117L391.383 325.284L365.546 304.55C356.718 297.098 349.185 289.485 343.678 281.547" fill="#FFDFA6"/>
<path d="M387.091 208.491C390.816 205.818 395.109 206.628 398.916 209.301C402.641 211.973 404.747 216.59 405.071 221.207C405.476 225.823 404.261 230.359 402.56 234.652C399.726 241.455 395.595 247.044 389.358 254.009L373.322 274.987L404.18 305.117L391.383 325.284L365.546 304.55C356.718 297.098 349.185 289.485 343.678 281.547" stroke="#333333" stroke-miterlimit="10" stroke-linecap="round" stroke-linejoin="round"/>
<path d="M343.678 281.546C343.678 281.546 343.759 281.627 343.84 281.789C344.002 281.951 344.164 282.194 344.407 282.518C344.893 283.166 345.622 284.138 346.594 285.353C348.537 287.783 351.453 291.185 355.503 295.234C357.528 297.259 359.877 299.446 362.387 301.714C364.979 303.982 367.895 306.25 370.973 308.76C377.128 313.701 384.013 319.29 391.545 325.283L391.302 325.364C395.271 319.047 399.564 312.243 404.099 305.197V305.44C398.916 300.418 393.651 295.234 388.143 289.889C383.041 284.867 378.019 280.007 373.16 275.31L372.998 275.148L373.079 274.986C378.748 267.615 384.094 260.488 389.115 254.008C392.274 250.445 395.19 246.962 397.539 243.398C399.969 239.834 401.831 236.109 403.127 232.464C404.423 228.819 405.071 225.175 404.909 221.854C404.747 218.533 403.694 215.455 402.155 213.187C400.617 210.839 398.592 209.219 396.648 208.247C394.704 207.275 392.841 206.951 391.302 207.032C389.763 207.194 388.71 207.599 387.981 208.004C387.253 208.409 386.929 208.652 386.929 208.571C386.929 208.571 387.01 208.49 387.172 208.409C387.334 208.328 387.577 208.085 387.901 207.923C388.548 207.518 389.682 207.032 391.221 206.87C392.76 206.708 394.704 207.032 396.648 208.004C398.592 208.976 400.698 210.596 402.236 212.944C403.775 215.293 404.828 218.371 405.071 221.773C405.314 225.175 404.666 228.819 403.37 232.545C402.074 236.19 400.212 239.996 397.782 243.56C395.352 247.205 392.436 250.688 389.277 254.251C384.256 260.812 378.91 267.858 373.322 275.31V275.067C378.181 279.765 383.122 284.705 388.305 289.646C393.732 294.991 399.078 300.175 404.261 305.197L404.342 305.278L404.261 305.44C399.726 312.567 395.433 319.371 391.464 325.607L391.383 325.769L391.221 325.607C383.77 319.614 376.804 314.025 370.649 309.084C367.571 306.574 364.655 304.306 362.144 302.038C359.553 299.77 357.285 297.583 355.26 295.558C351.21 291.509 348.294 288.026 346.351 285.596C345.379 284.381 344.731 283.409 344.245 282.761C344.002 282.437 343.84 282.194 343.759 282.032C343.759 281.627 343.678 281.546 343.678 281.546Z" fill="#333333"/>
<path d="M483.069 277.658C483.069 277.658 483.555 277.172 484.527 276.687C485.499 276.201 486.876 275.715 488.496 275.634C490.116 275.553 491.574 275.877 492.627 276.282C493.599 276.687 494.165 277.011 494.165 277.091" stroke="#333333" stroke-miterlimit="10" stroke-linecap="round" stroke-linejoin="round"/>
<path d="M410.581 324.392C409.771 324.797 407.26 326.012 404.992 327.146C402.238 328.523 398.836 328.118 396.488 326.174L393.005 323.339L402.724 308.031C403.858 308.517 408.556 309.165 410.176 309.732C411.553 310.218 413.091 310.461 414.549 310.461C416.088 310.461 418.113 310.38 419.49 310.056C419.571 310.056 419.733 309.975 419.814 309.975C420.057 309.894 420.3 309.813 420.543 309.813C421.92 309.651 423.054 311.109 422.244 312.324C421.434 313.539 417.708 314.997 412.848 314.835C412.767 314.835 412.686 314.835 412.605 314.835C408.313 314.835 412.281 318.399 414.792 320.504C415.683 321.233 416.169 322.367 416.007 323.501C415.926 323.906 415.764 324.311 415.44 324.554C414.225 325.364 410.581 324.392 410.581 324.392Z" fill="white" stroke="#333333" stroke-miterlimit="10" stroke-linecap="round" stroke-linejoin="round"/>
<path d="M423.619 217.158C416.168 217.158 409.445 210.841 409.526 201.365L408.149 147.504H408.311C408.23 145.155 410.012 143.211 412.361 142.968L434.553 140.619C442.167 139.809 448.97 145.56 449.456 153.254C450.023 161.759 450.347 172.207 449.294 178.605C447.27 191.402 437.469 193.022 437.469 193.022L437.712 201.932C438.117 211.408 430.909 217.158 423.619 217.158Z" fill="white" stroke="#333333" stroke-miterlimit="10" stroke-linecap="round" stroke-linejoin="round"/>
<path d="M444.516 160.139C444.516 161.029 443.868 161.758 442.896 161.758C442.005 161.839 441.195 161.11 441.195 160.301C441.195 159.41 441.843 158.681 442.815 158.681C443.706 158.6 444.435 159.248 444.516 160.139Z" fill="#333333"/>
<path d="M427.426 160.459C427.426 161.35 426.778 162.079 425.806 162.079C424.915 162.16 424.105 161.431 424.105 160.621C424.105 159.73 424.753 159.001 425.725 159.001C426.616 158.92 427.426 159.568 427.426 160.459Z" fill="#333333"/>
<path d="M437.468 192.94C437.468 192.94 433.905 194.155 425.319 190.672" stroke="#333333" stroke-miterlimit="10" stroke-linecap="round" stroke-linejoin="round"/>
<path d="M430.503 153.82C430.341 154.306 428.559 154.063 426.453 154.306C424.347 154.549 422.728 155.116 422.404 154.711C422.242 154.468 422.566 154.063 423.214 153.577C423.861 153.091 424.914 152.686 426.21 152.524C427.425 152.362 428.559 152.605 429.369 152.929C430.179 153.172 430.584 153.577 430.503 153.82Z" fill="#333333"/>
<path d="M446.539 153.499C446.215 153.904 445 153.499 443.542 153.499C442.084 153.418 440.869 153.742 440.545 153.337C440.383 153.094 440.626 152.77 441.193 152.365C441.76 151.96 442.651 151.717 443.623 151.717C444.595 151.717 445.486 152.122 445.972 152.527C446.539 152.851 446.701 153.256 446.539 153.499Z" fill="#333333"/>
<path d="M408.311 159.651C410.498 159.246 412.199 159.894 412.847 162.081C413.738 165.24 413.171 166.859 413.333 169.046C414.386 168.722 415.52 168.398 416.573 168.074C415.763 160.704 417.626 155.196 416.816 147.826C421.027 147.421 427.507 146.53 429.451 141.832C433.176 144.667 438.522 144.181 442.815 142.804C444.03 145.072 447.674 144.829 449.213 144.424C451.643 143.695 453.263 141.265 453.992 138.836C453.992 138.836 462.253 124.419 446.621 120.369C431.071 116.319 426.616 127.901 426.616 127.901C426.616 127.901 412.523 120.369 408.149 129.197C403.776 138.107 394.38 133.409 396.81 144.262C399.24 155.034 398.349 168.641 409.04 180.952L408.797 168.317L408.311 159.651Z" fill="#333333"/>
<path d="M409.284 159.57C407.988 159.732 406.693 160.623 406.207 161.595C405.721 162.567 405.559 163.701 405.559 164.754C405.559 166.455 405.964 168.156 407.097 169.452C408.231 170.747 410.175 171.314 411.633 170.586" fill="white"/>
<path d="M409.284 159.57C407.988 159.732 406.693 160.623 406.207 161.595C405.721 162.567 405.559 163.701 405.559 164.754C405.559 166.455 405.964 168.156 407.097 169.452C408.231 170.747 410.175 171.314 411.633 170.586" stroke="#333333" stroke-miterlimit="10" stroke-linecap="round" stroke-linejoin="round"/>
<path d="M430.583 178.281C432.203 179.414 435.281 178.767 436.415 177.147C433.985 175.77 431.636 174.15 429.612 172.125C429.693 172.206 427.344 176.013 430.583 178.281Z" stroke="#333333" stroke-miterlimit="10" stroke-linecap="round" stroke-linejoin="round"/>
<path d="M436.415 158.922C436.415 158.922 436.577 164.186 437.468 165.239C438.359 166.292 439.655 165.644 440.546 167.993C441.356 170.342 437.306 172.691 435.281 169.613" stroke="#333333" stroke-miterlimit="10" stroke-linecap="round" stroke-linejoin="round"/>
<path d="M459.176 229.062L463.387 327.308" stroke="#333333" stroke-miterlimit="10" stroke-linecap="round" stroke-linejoin="round"/>
<path d="M321.322 126.848C321.322 126.848 303.747 109.111 282.202 132.761C260.658 156.411 276.047 195.369 276.047 195.369H341.49C341.49 195.369 354.449 153.496 345.134 137.216C335.82 120.855 325.534 125.391 321.322 126.848Z" fill="#333333"/>
<path d="M411.55 234.004C415.114 228.982 419.082 221.693 420.864 218.291C424.185 211.893 423.618 211.569 422.808 211.326C420.621 210.597 416.49 222.341 415.923 219.263C415.357 216.185 422.646 205.494 420.378 204.846C417.381 203.955 413.251 216.347 412.846 217.319C412.441 218.291 410.983 217.724 411.388 216.833C412.036 215.537 418.191 201.768 415.276 200.878C413.656 200.392 413.089 203.388 413.089 203.388C413.089 203.388 408.229 216.752 406.852 216.266C405.475 215.78 408.067 207.843 409.12 205.251C410.173 202.659 409.363 201.121 407.905 201.525C406.852 201.849 403.45 209.706 402.479 212.379C401.507 214.97 398.915 222.179 397.295 217.481C397.295 217.4 397.214 217.319 397.214 217.238C395.756 212.622 393.164 209.544 391.787 209.139C390.41 208.734 389.438 210.273 390.005 211.569C390.086 211.812 390.167 211.974 390.329 212.217C390.41 212.298 390.491 212.379 390.572 212.541C391.301 213.675 392.03 215.618 392.516 217.076C393.002 218.453 393.245 219.992 393.245 221.45C393.245 223.151 394.055 228.173 393.974 229.468" fill="white"/>
<path d="M411.55 234.004C415.114 228.982 419.082 221.693 420.864 218.291C424.185 211.893 423.618 211.569 422.808 211.326C420.621 210.597 416.49 222.341 415.923 219.263C415.357 216.185 422.646 205.494 420.378 204.846C417.381 203.955 413.251 216.347 412.846 217.319C412.441 218.291 410.983 217.724 411.388 216.833C412.036 215.537 418.191 201.768 415.276 200.878C413.656 200.392 413.089 203.388 413.089 203.388C413.089 203.388 408.229 216.752 406.852 216.266C405.475 215.78 408.067 207.843 409.12 205.251C410.173 202.659 409.363 201.121 407.905 201.525C406.852 201.849 403.45 209.706 402.479 212.379C401.507 214.97 398.915 222.179 397.295 217.481C397.295 217.4 397.214 217.319 397.214 217.238C395.756 212.622 393.164 209.544 391.787 209.139C390.41 208.734 389.438 210.273 390.005 211.569C390.086 211.812 390.167 211.974 390.329 212.217C390.41 212.298 390.491 212.379 390.572 212.541C391.301 213.675 392.03 215.618 392.516 217.076C393.002 218.453 393.245 219.992 393.245 221.45C393.245 223.151 394.055 228.173 393.974 229.468" stroke="#333333" stroke-miterlimit="10" stroke-linecap="round" stroke-linejoin="round"/>
<path d="M393.245 227.444L373.645 266.321C373.645 266.321 362.549 234.247 356.555 221.531C354.287 216.672 349.752 213.27 345.297 211.083V211.002C344.973 210.84 344.649 210.759 344.406 210.597C339.546 208.248 335.092 207.276 334.525 207.195C313.871 201.283 294.352 203.308 271.835 211.245C271.835 211.245 260.172 214.404 254.422 229.631C249.319 243.4 243.568 264.458 242.596 268.184C235.55 291.834 245.593 304.955 259.524 303.335C265.275 302.444 270.134 297.666 272.321 295.803L279.692 288.837L279.854 294.183L271.754 327.391H356.636L341.328 288.027L344.73 270.047L350.561 283.897C354.287 292.725 362.792 298.476 372.349 298.719C382.068 298.962 390.978 293.292 395.027 284.464L414.871 234.49L393.245 227.444Z" fill="#333333" stroke="white" stroke-miterlimit="10" stroke-linecap="round" stroke-linejoin="round"/>
<path d="M291.031 275.877C291.031 275.877 290.788 276.282 290.302 276.93C289.816 277.578 289.006 278.55 288.034 279.765C286.091 282.113 283.256 285.272 280.016 288.593C276.776 291.914 273.617 294.83 271.35 296.773C270.216 297.745 269.244 298.555 268.515 299.041C267.867 299.527 267.462 299.851 267.462 299.851" stroke="white" stroke-miterlimit="10" stroke-linecap="round" stroke-linejoin="round"/>
<path d="M343.676 242.67C343.676 242.67 343.757 242.832 343.757 243.075C343.838 243.399 343.919 243.804 344.081 244.371C344.324 245.505 344.81 247.044 345.296 248.987C345.782 250.931 346.268 253.361 346.43 256.034C346.511 257.411 346.349 258.788 346.187 260.246C346.025 261.704 345.863 263.161 345.62 264.7C344.81 270.856 343.757 276.363 342.947 280.251C342.542 282.195 342.218 283.734 341.975 284.949C341.894 285.435 341.732 285.921 341.651 286.245C341.57 286.569 341.57 286.65 341.489 286.65" fill="#333333"/>
<path d="M343.676 242.67C343.676 242.67 343.757 242.832 343.757 243.075C343.838 243.399 343.919 243.804 344.081 244.371C344.324 245.505 344.81 247.044 345.296 248.987C345.782 250.931 346.268 253.361 346.43 256.034C346.511 257.411 346.349 258.788 346.187 260.246C346.025 261.704 345.863 263.161 345.62 264.7C344.81 270.856 343.757 276.363 342.947 280.251C342.542 282.195 342.218 283.734 341.975 284.949C341.894 285.435 341.732 285.921 341.651 286.245C341.57 286.569 341.57 286.65 341.489 286.65" stroke="white" stroke-miterlimit="10" stroke-linecap="round" stroke-linejoin="round"/>
<path d="M371.862 275.797C371.781 275.797 372.024 273.61 372.51 271.018C372.996 268.426 373.482 266.32 373.563 266.32" stroke="white" stroke-miterlimit="10" stroke-linecap="round" stroke-linejoin="round"/>
<path d="M374.858 277.012C374.777 277.012 374.372 274.582 374.048 271.586C373.724 268.589 373.481 266.078 373.643 266.078" stroke="white" stroke-miterlimit="10" stroke-linecap="round" stroke-linejoin="round"/>
<path d="M312.331 269.154C312.412 269.154 312.574 282.194 312.574 298.231C312.574 314.268 312.493 327.308 312.331 327.308" stroke="white" stroke-miterlimit="10" stroke-linecap="round" stroke-linejoin="round"/>
<path d="M275.235 260.083C275.154 260.083 274.992 256.276 274.992 251.66C274.992 246.962 275.073 243.236 275.235 243.236" stroke="white" stroke-miterlimit="10" stroke-linecap="round" stroke-linejoin="round"/>
<path d="M245.673 283.654C245.592 283.654 245.511 283.087 245.592 282.115C245.673 281.224 245.916 279.929 246.483 278.552C247.05 277.256 247.86 276.203 248.427 275.474C249.075 274.826 249.561 274.502 249.561 274.502" stroke="white" stroke-miterlimit="10" stroke-linecap="round" stroke-linejoin="round"/>
<path d="M278.801 257.574C278.801 257.574 278.396 257.817 277.667 258.303C276.857 258.87 275.885 259.518 274.67 260.409C272.16 262.191 268.515 264.54 264.465 266.97C260.334 269.399 256.528 271.343 253.774 272.72C252.397 273.368 251.344 273.935 250.453 274.34C249.643 274.745 249.238 274.907 249.238 274.988" stroke="white" stroke-miterlimit="10" stroke-linecap="round" stroke-linejoin="round"/>
<path d="M325.535 193.427C325.535 193.427 335.902 191.726 338.089 178.2C339.142 171.478 338.818 160.463 338.251 151.391C337.765 143.292 330.556 137.217 322.457 138.108L298.969 140.619C296.539 140.862 294.676 142.968 294.676 145.479L297.106 204.28C295.405 204.685 291.517 206.548 289.654 207.115C289.654 207.115 307.797 246.64 312.252 246.154C316.706 245.668 334.12 207.925 334.12 207.925C334.12 207.925 330.637 206.062 325.049 204.928C325.049 198.692 325.535 193.427 325.535 193.427Z" fill="white" stroke="#333333" stroke-miterlimit="10" stroke-linecap="round" stroke-linejoin="round"/>
<path d="M332.986 158.76C332.986 159.651 332.257 160.461 331.285 160.542C330.313 160.623 329.503 159.894 329.503 159.003C329.503 158.112 330.232 157.302 331.204 157.221C332.176 157.14 332.905 157.869 332.986 158.76Z" fill="#333333"/>
<path d="M314.925 159.086C314.925 159.977 314.196 160.787 313.224 160.868C312.252 160.949 311.442 160.22 311.442 159.329C311.442 158.438 312.171 157.628 313.143 157.547C314.115 157.466 314.925 158.195 314.925 159.086Z" fill="#333333"/>
<path d="M325.536 193.424C325.536 193.424 318.409 194.072 314.197 189.941" stroke="#333333" stroke-miterlimit="10" stroke-linecap="round" stroke-linejoin="round"/>
<path d="M318.325 154.227C318.163 154.713 316.3 154.47 314.113 154.794C311.926 155.037 310.144 155.685 309.82 155.199C309.658 154.956 309.982 154.47 310.711 153.984C311.44 153.498 312.574 153.012 313.87 152.85C315.166 152.688 316.381 152.931 317.191 153.255C318.001 153.579 318.406 153.984 318.325 154.227Z" fill="#333333"/>
<path d="M335.171 152.93C334.848 153.335 333.552 152.93 332.013 152.93C330.474 152.849 329.178 153.254 328.854 152.768C328.692 152.525 328.935 152.12 329.502 151.715C330.069 151.31 331.041 150.986 332.094 150.986C333.147 150.986 334.038 151.391 334.605 151.877C335.09 152.282 335.252 152.768 335.171 152.93Z" fill="#333333"/>
<path d="M327.642 205.492C327.642 205.492 323.835 219.666 314.278 219.666C304.72 219.666 300.023 213.672 294.272 205.33L289.736 207.112L311.443 250.282C311.443 250.282 324.645 229.547 334.202 207.841C334.202 207.841 331.61 206.464 327.642 205.492Z" fill="#B2EEDF" stroke="#333333" stroke-miterlimit="10" stroke-linecap="round" stroke-linejoin="round"/>
<path d="M289.736 231.17L290.546 252.714L292.733 273.368L315.654 272.396L314.035 231.656L289.736 231.17Z" fill="white" stroke="#333333" stroke-miterlimit="10" stroke-linecap="round" stroke-linejoin="round"/>
<path d="M286.334 231.088L287.225 252.713L289.331 273.367L312.333 272.395L310.632 231.574L286.334 231.088Z" fill="#FFDFA6" stroke="#333333" stroke-miterlimit="10" stroke-linecap="round" stroke-linejoin="round"/>
<path d="M284.146 275.877C290.302 275.796 298.482 274.581 302.289 273.933C309.417 272.799 309.336 272.151 309.093 271.341C308.445 269.154 296.539 272.88 298.644 270.612C300.75 268.344 313.709 267.777 312.899 265.51C311.846 262.594 299.454 266.724 298.401 266.967C297.348 267.21 296.943 265.672 297.915 265.51C299.292 265.267 314.033 261.946 313.061 259.111C312.494 257.491 309.741 258.868 309.741 258.868C309.741 258.868 296.134 262.918 295.729 261.541C295.324 260.164 303.18 257.491 305.934 256.762C308.607 256.033 309.417 254.494 308.121 253.522C307.23 252.875 298.887 254.818 296.215 255.628C293.542 256.357 286.252 258.625 289.006 254.575C289.087 254.494 289.087 254.413 289.087 254.413C291.922 250.526 292.813 246.557 292.327 245.18C291.841 243.884 289.978 243.965 289.33 245.18C289.168 245.342 289.087 245.585 289.087 245.828C289.087 245.909 289.006 246.071 289.006 246.152C288.52 247.448 287.467 249.149 286.576 250.445C285.766 251.66 284.713 252.794 283.498 253.603C282.122 254.575 278.639 258.301 277.586 258.949" fill="white"/>
<path d="M284.146 275.877C290.302 275.796 298.482 274.581 302.289 273.933C309.417 272.799 309.336 272.151 309.093 271.341C308.445 269.154 296.539 272.88 298.644 270.612C300.75 268.344 313.709 267.777 312.899 265.51C311.846 262.594 299.454 266.724 298.401 266.967C297.348 267.21 296.943 265.672 297.915 265.51C299.292 265.267 314.033 261.946 313.061 259.111C312.494 257.491 309.741 258.868 309.741 258.868C309.741 258.868 296.134 262.918 295.729 261.541C295.324 260.164 303.18 257.491 305.934 256.762C308.607 256.033 309.417 254.494 308.121 253.522C307.23 252.875 298.887 254.818 296.215 255.628C293.542 256.357 286.252 258.625 289.006 254.575C289.087 254.494 289.087 254.413 289.087 254.413C291.922 250.526 292.813 246.557 292.327 245.18C291.841 243.884 289.978 243.965 289.33 245.18C289.168 245.342 289.087 245.585 289.087 245.828C289.087 245.909 289.006 246.071 289.006 246.152C288.52 247.448 287.467 249.149 286.576 250.445C285.766 251.66 284.713 252.794 283.498 253.603C282.122 254.575 278.639 258.301 277.586 258.949" stroke="#333333" stroke-miterlimit="10" stroke-linecap="round" stroke-linejoin="round"/>
<path d="M278.883 257.816L291.032 275.878L271.026 296.289L271.755 263.243L278.883 257.816Z" fill="#333333"/>
<path d="M326.345 135.43C326.345 135.43 307.879 149.766 286.01 168.638L283.904 137.374L318.165 133.811L326.345 135.43Z" fill="#333333"/>
<path d="M294.514 152.93C294.514 152.93 302.694 175.77 292.003 193.427L278.639 182.007L280.421 153.335L294.514 152.93Z" fill="#333333"/>
<path d="M291.032 275.877L278.801 257.572L275.805 259.516" stroke="white" stroke-miterlimit="10" stroke-linecap="round" stroke-linejoin="round"/>
<path d="M323.995 157.223C323.995 157.223 327.397 165.403 327.559 167.266C327.721 169.129 326.263 170.101 323.186 169.696" stroke="#333333" stroke-miterlimit="10" stroke-linecap="round" stroke-linejoin="round"/>
<path d="M315.573 173.66C315.573 173.66 321.972 177.467 327.074 177.062C327.074 176.981 322.62 190.75 315.573 173.66Z" stroke="#333333" stroke-miterlimit="10" stroke-linecap="round" stroke-linejoin="round"/>
<path d="M318.731 319.614C319.983 319.614 320.999 318.598 320.999 317.346C320.999 316.093 319.983 315.078 318.731 315.078C317.478 315.078 316.463 316.093 316.463 317.346C316.463 318.598 317.478 319.614 318.731 319.614Z" fill="white"/>
<path d="M318.731 302.284C319.983 302.284 320.999 301.268 320.999 300.016C320.999 298.763 319.983 297.748 318.731 297.748C317.478 297.748 316.463 298.763 316.463 300.016C316.463 301.268 317.478 302.284 318.731 302.284Z" fill="white"/>
<path d="M318.731 284.868C319.983 284.868 320.999 283.852 320.999 282.6C320.999 281.347 319.983 280.332 318.731 280.332C317.478 280.332 316.463 281.347 316.463 282.6C316.463 283.852 317.478 284.868 318.731 284.868Z" fill="white"/>
<path d="M318.731 267.456C319.983 267.456 320.999 266.44 320.999 265.188C320.999 263.935 319.983 262.92 318.731 262.92C317.478 262.92 316.463 263.935 316.463 265.188C316.463 266.44 317.478 267.456 318.731 267.456Z" fill="white"/>
<path d="M300.588 157.302C300.588 157.302 297.996 152.685 293.784 154.548C289.573 156.411 290.95 162.972 293.784 164.187C296.619 165.321 297.915 165.564 297.915 165.564L300.588 157.302Z" fill="white"/>
<path d="M304.719 239.836L293.704 239.27" stroke="#333333" stroke-miterlimit="10" stroke-linecap="round" stroke-linejoin="round"/>
<path d="M304.719 242.993L293.704 242.426" stroke="#333333" stroke-miterlimit="10" stroke-linecap="round" stroke-linejoin="round"/>
<path d="M269.5 327H357.5" stroke="#333333" stroke-miterlimit="10" stroke-linecap="round" stroke-linejoin="round"/>
<path d="M71.7979 327.633H497.222" stroke="#333333" stroke-miterlimit="10" stroke-linecap="round" stroke-linejoin="round"/>
<ellipse cx="225.5" cy="165" rx="4.5" ry="5" fill="#919191"/>
</svg>
